<svg width="52" height="53" viewBox="0 0 52 53" fill="none" xmlns="http://www.w3.org/2000/svg">
<g id="arrow-right-contained-01">
<path id="Icon" d="M24.7839 16.7501C24.2754 16.1399 23.3685 16.0575 22.7584 16.5659C22.1482 17.0744 22.0658 17.9812 22.5743 18.5914L24.7839 16.7501ZM30.8292 26.251L31.934 27.1716C32.3785 26.6383 32.3785 25.8636 31.934 25.3303L30.8292 26.251ZM22.5743 33.9105C22.0658 34.5207 22.1482 35.4275 22.7584 35.936C23.3685 36.4445 24.2754 36.362 24.7839 35.7519L22.5743 33.9105ZM22.5743 18.5914L29.7244 27.1716L31.934 25.3303L24.7839 16.7501L22.5743 18.5914ZM29.7244 25.3303L22.5743 33.9105L24.7839 35.7519L31.934 27.1716L29.7244 25.3303ZM26.1071 8.70473C36.0353 8.70473 44.0837 16.7531 44.0837 26.6813H46.9599C46.9599 15.1646 37.6238 5.82847 26.1071 5.82847V8.70473ZM44.0837 26.6813C44.0837 36.6095 36.0353 44.6579 26.1071 44.6579V47.5342C37.6238 47.5342 46.9599 38.198 46.9599 26.6813H44.0837ZM26.1071 44.6579C16.1789 44.6579 8.13051 36.6095 8.13051 26.6813H5.25426C5.25426 38.198 14.5904 47.5342 26.1071 47.5342V44.6579ZM8.13051 26.6813C8.13051 16.7531 16.1789 8.70473 26.1071 8.70473V5.82847C14.5904 5.82847 5.25426 15.1646 5.25426 26.6813H8.13051Z" fill="white"/>
</g>
</svg>
