<svg width="30" height="30" viewBox="0 0 30 30" fill="none" xmlns="http://www.w3.org/2000/svg">
<g id="Icon/Fill/phone" clip-path="url(#clip0_2482_1451)">
<path id="Vector" d="M8.275 13.4875L11.025 10.7375C11.375 10.3875 11.475 9.9 11.3375 9.4625C10.875 8.0625 10.625 6.5625 10.625 5C10.625 4.3125 10.0625 3.75 9.375 3.75H5C4.3125 3.75 3.75 4.3125 3.75 5C3.75 16.7375 13.2625 26.25 25 26.25C25.6875 26.25 26.25 25.6875 26.25 25V20.6375C26.25 19.95 25.6875 19.3875 25 19.3875C23.45 19.3875 21.9375 19.1375 20.5375 18.675C20.1 18.525 19.6 18.6375 19.2625 18.975L16.5125 21.725C12.975 19.9125 10.075 17.025 8.275 13.4875Z" fill="white"/>
</g>
<defs>
<clipPath id="clip0_2482_1451">
<rect width="30" height="30" fill="white" transform="matrix(-1 0 0 1 30 0)"/>
</clipPath>
</defs>
</svg>
