<svg width="30" height="30" viewBox="0 0 30 30" fill="none" xmlns="http://www.w3.org/2000/svg">
<g id="LinkedIn">
<path id="Vector" d="M6.77451 9.86523H0.505859V29.8556H6.77451V9.86523Z" fill="white"/>
<path id="Vector_2" d="M23.7314 9.43212C23.5003 9.40323 23.2548 9.38879 23.0092 9.37434C19.4994 9.2299 17.5206 11.3098 16.8272 12.2053C16.6395 12.4509 16.5528 12.5953 16.5528 12.5953V9.92321H10.5586V29.9136H16.5528H16.8272C16.8272 27.877 16.8272 25.8548 16.8272 23.8182C16.8272 22.7205 16.8272 21.6228 16.8272 20.525C16.8272 19.1673 16.7261 17.7229 17.405 16.4807C17.9828 15.4408 19.0227 14.9208 20.1927 14.9208C23.6592 14.9208 23.7314 18.0551 23.7314 18.344C23.7314 18.3584 23.7314 18.3729 23.7314 18.3729V30.0002H30.0001V16.9574C30.0001 12.4942 27.7324 9.86544 23.7314 9.43212Z" fill="white"/>
<path id="Vector_3" d="M3.63985 7.27972C5.65009 7.27972 7.27973 5.6501 7.27973 3.63986C7.27973 1.62962 5.65009 0 3.63985 0C1.62961 0 0 1.62962 0 3.63986C0 5.6501 1.62961 7.27972 3.63985 7.27972Z" fill="white"/>
</g>
</svg>
