<svg width="35" height="35" viewBox="0 0 35 35" fill="none" xmlns="http://www.w3.org/2000/svg">
<g id="phone">
<path id="Icon" d="M29.7771 27.4207C29.7771 27.4207 28.1108 29.0573 27.7025 29.5371C27.0373 30.2469 26.2535 30.5821 25.2261 30.5821C25.1273 30.5821 25.0219 30.5821 24.9231 30.5756C22.967 30.4507 21.1492 29.6883 19.7859 29.0376C16.0581 27.2366 12.7848 24.6798 10.0647 21.4395C7.81877 18.7381 6.31712 16.2404 5.3226 13.5588C4.71009 11.9222 4.48616 10.6471 4.58495 9.44425C4.65081 8.67524 4.94719 8.03768 5.49385 7.49215L7.73974 5.25084C8.06246 4.9485 8.40494 4.78418 8.74084 4.78418C9.15577 4.78418 9.49166 5.03394 9.70242 5.24427C9.70901 5.25084 9.71559 5.25742 9.72218 5.26399C10.1239 5.63864 10.5059 6.02643 10.9077 6.44051C11.1119 6.65084 11.3226 6.86116 11.5334 7.07806L13.3314 8.87242C14.0295 9.56913 14.0295 10.2133 13.3314 10.91C13.1404 11.1006 12.956 11.2912 12.765 11.4752C12.2118 12.0405 12.6464 11.6068 12.0734 12.1194C12.0602 12.1326 12.047 12.1392 12.0404 12.1523C11.474 12.7176 11.5794 13.2697 11.6979 13.6443C11.7045 13.664 11.7111 13.6837 11.7177 13.7035C12.1853 14.834 12.8439 15.8988 13.845 17.1673L13.8516 17.1739C15.6694 19.4086 17.586 21.1504 19.7002 22.4846C19.9702 22.6555 20.2468 22.7935 20.5103 22.925C20.7474 23.0433 20.9713 23.155 21.1623 23.2734C21.1886 23.2865 21.215 23.3062 21.2413 23.3194C21.4653 23.4311 21.676 23.4837 21.8934 23.4837C22.44 23.4837 22.7825 23.1419 22.8945 23.0302L24.1854 21.7418C24.4094 21.5184 24.765 21.2489 25.18 21.2489C25.5883 21.2489 25.9242 21.5052 26.1284 21.7287C26.135 21.7353 26.135 21.7353 26.1415 21.7418L29.7705 25.3634C30.4489 26.0338 29.7771 27.4207 29.7771 27.4207Z" stroke="#2C66B8" stroke-width="2.87625" stroke-linecap="round" stroke-linejoin="round"/>
</g>
</svg>
