<svg width="30" height="27" viewBox="0 0 30 27" fill="none" xmlns="http://www.w3.org/2000/svg">
<path id="Twitter" d="M0 22.4276C3.22926 22.6093 6.05312 21.8544 8.80708 19.8554C6.02516 19.3801 4.096 18.1079 3.04754 15.4798C3.85835 15.3679 4.57131 15.5776 5.41008 15.2421C2.67009 14.0399 0.894691 12.2365 0.824794 9.1191C1.69152 9.18899 2.34857 9.76215 3.38305 9.67828C0.866739 7.21788 0.0978565 4.53382 1.67754 1.2766C4.30569 4.29617 7.38119 6.35116 11.1417 7.31574C11.3514 7.37166 11.5471 7.42758 11.7568 7.46952C12.7213 7.69319 13.8677 8.16849 14.4548 8.09859C15.4613 7.97278 14.4548 6.81248 14.7064 5.30269C15.5033 0.605582 20.6757 -1.53328 24.5061 1.22068C25.6244 2.03149 26.5051 2.01751 27.6095 1.52823C28.1827 1.2766 28.7698 1.02497 29.4548 0.731398C29.301 2.07343 28.2666 2.81434 27.4418 3.80689C28.3784 4.01658 29.1333 3.75097 30 3.47138C29.7064 4.43597 28.9795 4.98117 28.3225 5.51239C27.6375 6.05759 27.3719 6.63075 27.3439 7.52543C26.9245 21.0716 11.5331 31.5422 1.00653 23.2104C-0.0139693 22.3996 0.978565 23.2104 0 22.4276Z" fill="white"/>
</svg>
