<svg width="30" height="30" viewBox="0 0 30 30" fill="none" xmlns="http://www.w3.org/2000/svg">
<g id="Whatsapp">
<path id="Vector" d="M28.8257 8.58532C28.0674 6.90984 26.979 5.40557 25.597 4.10921C24.215 2.82508 22.6129 1.81001 20.8274 1.10068C18.9807 0.366894 17.0239 0 15.006 0C12.9881 0 11.0313 0.366894 9.18459 1.10068C7.39904 1.81001 5.79694 2.81285 4.41497 4.10921C3.033 5.40557 1.94456 6.90984 1.18631 8.58532C0.403607 10.3219 0 12.1809 0 14.0887C0 17.4275 1.24743 20.6317 3.5344 23.1755L2.31142 29.8407L8.8177 26.9422C10.7622 27.7739 12.8291 28.1897 14.9937 28.1897C17.0117 28.1897 18.9684 27.8228 20.8151 27.089C22.6007 26.3797 24.2028 25.3768 25.5848 24.0805C26.9667 22.7841 28.0552 21.2798 28.8134 19.6044C29.5961 17.8677 29.9997 16.0088 29.9997 14.101C30.012 12.1809 29.6084 10.3342 28.8257 8.58532Z" fill="white"/>
<path id="Vector_2" d="M21.0963 16.9016C20.4603 16.5836 19.9956 16.3879 19.6654 16.2656C19.4575 16.1922 18.9683 15.9721 18.7971 16.1066C18.259 16.5469 17.6841 17.7943 17.0727 18.0267C15.5562 17.7332 14.1498 16.6937 13.0491 15.6297C12.5599 15.1649 11.6549 13.8441 11.4592 13.4894C11.4225 13.1226 12.0829 12.6334 12.2296 12.3521C12.9879 11.496 12.4131 10.9579 12.3153 10.6032C12.1441 10.2363 11.8506 9.57591 11.5937 9.0378C11.3736 8.68314 11.3246 8.15726 10.9333 7.96158C9.27002 7.10549 8.31615 8.81767 7.92479 9.71044C5.56444 15.3973 19.751 26.2207 22.6372 18.7605C22.784 18.1123 22.7228 17.8677 22.5027 17.5742C22.0624 17.2685 21.5488 17.1339 21.0963 16.9016Z" fill="black"/>
</g>
</svg>
